<?xml version="1.0" standalone="no"?>
<!DOCTYPE svg PUBLIC "-//W3C//DTD SVG 20010904//EN"
 "http://www.w3.org/TR/2001/REC-SVG-20010904/DTD/svg10.dtd">
<svg version="1.0" xmlns="http://www.w3.org/2000/svg"
 width="16.000000pt" height="16.000000pt" viewBox="0 0 16.000000 16.000000"
 preserveAspectRatio="xMidYMid meet">
<metadata>
Created by potrace 1.11, written by Peter Selinger 2001-2013
</metadata>
<g transform="translate(0.000000,16.000000) scale(0.006400,-0.006400)"
fill="#000000" stroke="none">
<path d="M1790 2467 c-22 -20 -288 -245 -409 -346 -24 -20 -49 -41 -55 -46 -6
-6 -51 -44 -101 -85 -49 -41 -92 -77 -95 -80 -3 -3 -61 -52 -130 -110 -69 -57
-134 -112 -145 -121 -11 -10 -54 -46 -95 -81 -41 -35 -80 -67 -86 -73 -19 -16
-100 -84 -239 -201 -72 -59 -135 -113 -141 -119 -7 -5 -50 -41 -97 -80 -47
-38 -86 -73 -86 -76 -1 -3 216 -6 482 -7 265 0 488 -1 495 -1 7 -1 -98 -221
-244 -512 -140 -281 -254 -513 -252 -515 2 -2 17 8 33 22 68 58 175 149 520
439 116 97 230 194 255 215 25 21 124 104 220 185 96 81 186 157 200 169 14
12 108 91 210 176 102 85 201 169 220 187 19 18 38 33 43 33 4 0 7 3 7 8 0 4
-223 7 -495 7 -272 0 -495 1 -495 2 0 2 115 233 256 514 140 281 254 513 252
515 -2 2 -15 -7 -28 -19z"/>
</g>
</svg>
