<svg xmlns="http://www.w3.org/2000/svg" width="100" height="33" fill="none"><path fill="#000" d="M46.713 23.056c.156.192.26.411.321.659.057.248.086.481.086.687v.374c0 .804-.303 1.608-.904 2.412-.6.803-1.315 1.542-2.147 2.21a16.654 16.654 0 0 1-2.526 1.692c-.852.458-1.533.729-2.034.804-1.007.191-1.85.028-2.526-.486-.676-.519-1.23-1.206-1.655-2.066-.426-.86-.757-1.837-.989-2.93a58.091 58.091 0 0 1-.582-3.132 99.856 99.856 0 0 1-.378-2.64c-.1-.767-.222-1.243-.378-1.435-.119-.154-.331.065-.639.659a160.07 160.07 0 0 0-1.22 2.383c-.506.996-1.083 2.085-1.74 3.272a29.106 29.106 0 0 1-2.153 3.332c-.776 1.033-1.599 1.916-2.469 2.64-.87.725-1.793 1.09-2.758 1.09-1.154.037-2.152-.248-2.993-.86a7.24 7.24 0 0 1-2.077-2.356c-.54-.958-.941-2-1.21-3.13-.27-1.132-.403-2.193-.403-3.188 0-.804.057-1.627.175-2.468.114-.841.223-1.617.317-2.327.095-.706.203-1.332.317-1.865.232-.996.232-1.51 0-1.552-.383.038-.866.5-1.447 1.379-.582.879-1.211 1.982-1.888 3.3a173.59 173.59 0 0 0-2.123 4.304 159.401 159.401 0 0 1-2.12 4.304c-.676 1.323-1.314 2.421-1.915 3.3-.6.878-1.097 1.322-1.48 1.322-1.59 0-2.848-.266-3.78-.803C.464 31.402 0 30.45 0 29.07c0-2.145.104-4.22.317-6.23.213-2.01.525-4.286.932-6.833.406-2.547.86-4.337 1.367-5.37.501-1.033 1.083-1.607 1.74-1.724a3.18 3.18 0 0 1 1.452.117c.502.154.96.373 1.367.659.407.285.748.63 1.017 1.033.27.401.407.831.407 1.29 0 .154-.085.728-.26 1.724-.175.995-.35 1.916-.52 2.757-.175.842-.166 1.323.028 1.435.156 0 .473-.248.96-.748a35.474 35.474 0 0 0 1.712-1.925c.658-.785 1.386-1.627 2.18-2.529a38.369 38.369 0 0 1 2.408-2.495 18.45 18.45 0 0 1 2.37-1.926c.766-.519 1.476-.776 2.133-.776.658 0 1.24.117 1.76.346.52.23.941.519 1.272.86a3.8 3.8 0 0 1 .757 1.15c.175.42.241.804.203 1.15-.038.42-.146 1.196-.317 2.327a161.1 161.1 0 0 0-.525 3.701c-.175 1.342-.33 2.641-.463 3.903-.137 1.262-.185 2.22-.147 2.87.076.883.289 1.322.639 1.322.35 0 .823-.364 1.423-1.089.601-.724 1.259-1.626 1.978-2.697.714-1.07 1.48-2.229 2.294-3.472a47.17 47.17 0 0 1 2.469-3.444c.832-1.052 1.636-1.945 2.412-2.669s1.509-1.089 2.209-1.089c.501 0 1.102.23 1.802.687.7.458 1.182 1.112 1.452 1.954.27.766.497 1.827.667 3.187.175 1.36.35 2.687.525 3.991.175 1.304.397 2.393.667 3.272.27.883.638 1.224 1.102 1.033.813-.267 1.5-.575 2.062-.921.563-.346 1.306-.725 2.237-1.15.27 0 .483.098.639.285l-.014.019Z"/><path fill="#000" d="M46.202 7.063c-.7-.692-1.05-1.57-1.05-2.64s.35-1.987 1.05-2.664c.7-.678 1.59-1.015 2.672-1.015 1.084 0 1.973.337 2.673 1.015.7.677 1.045 1.565 1.045 2.663 0 1.099-.35 1.917-1.045 2.622-.7.706-1.59 1.057-2.673 1.057s-1.977-.346-2.672-1.038ZM45.43 31.75a.491.491 0 0 1-.151-.36V10.55c0-.14.047-.261.15-.36.1-.097.223-.149.365-.149h6.073c.142 0 .265.052.364.15.1.098.152.22.152.36v20.84a.49.49 0 0 1-.151.359.503.503 0 0 1-.365.15h-6.073a.485.485 0 0 1-.364-.15ZM59.654 30.207c-1.798-1.351-2.994-3.183-3.595-5.497-.34-1.154-.515-2.425-.515-3.804 0-1.551.184-2.916.558-4.099.657-2.224 1.873-3.967 3.656-5.22 1.783-1.252 3.945-1.879 6.48-1.879 2.535 0 4.635.627 6.376 1.879 1.74 1.252 2.951 2.982 3.637 5.178.397 1.267.6 2.622.6 4.057 0 1.295-.155 2.538-.467 3.72-.601 2.37-1.798 4.244-3.595 5.622-1.797 1.384-3.992 2.07-6.589 2.07-2.597 0-4.749-.677-6.546-2.027Zm8.599-4.758c.54-.524.941-1.234 1.197-2.136.17-.734.255-1.538.255-2.412 0-.873-.1-1.663-.298-2.453-.227-.874-.615-1.552-1.154-2.029-.544-.476-1.225-.72-2.053-.72-1.655 0-2.739.917-3.25 2.749-.17.677-.255 1.495-.255 2.453 0 .874.085 1.678.256 2.412.227.902.62 1.612 1.177 2.136.558.523 1.25.78 2.077.78.828 0 1.513-.261 2.053-.78h-.005ZM97.862 11.797c1.424 1.393 2.138 3.29 2.138 5.688v13.909c0 .14-.052.261-.151.36a.504.504 0 0 1-.365.15h-6.073a.485.485 0 0 1-.364-.15.492.492 0 0 1-.151-.36V19.009c0-.958-.27-1.748-.814-2.37-.544-.621-1.24-.93-2.095-.93-.856 0-1.599.304-2.138.907-.544.607-.814 1.402-.814 2.388v12.385c0 .14-.052.262-.151.36a.503.503 0 0 1-.364.15h-6.073a.485.485 0 0 1-.365-.15.491.491 0 0 1-.151-.36v-20.84c0-.14.047-.261.151-.36.1-.098.223-.149.365-.149h6.073c.142 0 .265.052.364.15.1.098.151.22.151.36v1.565c0 .112.02.178.067.192.042.014.094-.019.15-.108 1.084-1.663 2.796-2.495 5.133-2.495 2.336 0 4.049.696 5.477 2.093Z"/><path fill="#FFE900" d="M68.253 25.449c.539-.524.941-1.234 1.196-2.136.17-.734.256-1.537.256-2.412 0-.873-.1-1.663-.298-2.453-.227-.874-.615-1.552-1.154-2.028-.544-.477-1.225-.72-2.053-.72-1.656 0-2.739.916-3.25 2.748-.17.678-.255 1.495-.255 2.453 0 .875.085 1.678.255 2.412.227.902.62 1.613 1.178 2.136.558.523 1.249.78 2.077.78.827 0 1.513-.261 2.052-.78h-.004Z"/></svg>